<svg xmlns="http://www.w3.org/2000/svg" width="1000" height="1000" viewBox="0 0 1000 1000" font-family="Arial, Noto Sans CJK SC, Microsoft YaHei, sans-serif">
<rect width="100%" height="100%" fill="#ffffff"/>
<text x="40" y="45" font-size="24" font-weight="700">ConsisID 官方 VBench 中文指标雷达图</text>
<polygon points="500.0,436.0 524.5,440.9 545.3,454.7 559.1,475.5 564.0,500.0 559.1,524.5 545.3,545.3 524.5,559.1 500.0,564.0 475.5,559.1 454.7,545.3 440.9,524.5 436.0,500.0 440.9,475.5 454.7,454.7 475.5,440.9" fill="none" stroke="#d8dee9" stroke-width="1"/>
<polygon points="500.0,372.0 549.0,381.7 590.5,409.5 618.3,451.0 628.0,500.0 618.3,549.0 590.5,590.5 549.0,618.3 500.0,628.0 451.0,618.3 409.5,590.5 381.7,549.0 372.0,500.0 381.7,451.0 409.5,409.5 451.0,381.7" fill="none" stroke="#d8dee9" stroke-width="1"/>
<polygon points="500.0,308.0 573.5,322.6 635.8,364.2 677.4,426.5 692.0,500.0 677.4,573.5 635.8,635.8 573.5,677.4 500.0,692.0 426.5,677.4 364.2,635.8 322.6,573.5 308.0,500.0 322.6,426.5 364.2,364.2 426.5,322.6" fill="none" stroke="#d8dee9" stroke-width="1"/>
<polygon points="500.0,244.0 598.0,263.5 681.0,319.0 736.5,402.0 756.0,500.0 736.5,598.0 681.0,681.0 598.0,736.5 500.0,756.0 402.0,736.5 319.0,681.0 263.5,598.0 244.0,500.0 263.5,402.0 319.0,319.0 402.0,263.5" fill="none" stroke="#d8dee9" stroke-width="1"/>
<polygon points="500.0,180.0 622.5,204.4 726.3,273.7 795.6,377.5 820.0,500.0 795.6,622.5 726.3,726.3 622.5,795.6 500.0,820.0 377.5,795.6 273.7,726.3 204.4,622.5 180.0,500.0 204.4,377.5 273.7,273.7 377.5,204.4" fill="none" stroke="#d8dee9" stroke-width="1"/>
<line x1="500" y1="500" x2="500.0" y2="180.0" stroke="#e5e7eb" stroke-width="1"/>
<text x="500.0" y="125.0" font-size="14" text-anchor="middle">主体一致性</text>
<line x1="500" y1="500" x2="622.5" y2="204.4" stroke="#e5e7eb" stroke-width="1"/>
<text x="643.5" y="153.5" font-size="14" text-anchor="start">背景一致性</text>
<line x1="500" y1="500" x2="726.3" y2="273.7" stroke="#e5e7eb" stroke-width="1"/>
<text x="765.2" y="234.8" font-size="14" text-anchor="start">画面闪烁稳定性</text>
<line x1="500" y1="500" x2="795.6" y2="377.5" stroke="#e5e7eb" stroke-width="1"/>
<text x="846.5" y="356.5" font-size="14" text-anchor="start">运动平滑度</text>
<line x1="500" y1="500" x2="820.0" y2="500.0" stroke="#e5e7eb" stroke-width="1"/>
<text x="875.0" y="500.0" font-size="14" text-anchor="start">动态程度</text>
<line x1="500" y1="500" x2="795.6" y2="622.5" stroke="#e5e7eb" stroke-width="1"/>
<text x="846.5" y="643.5" font-size="14" text-anchor="start">美学质量</text>
<line x1="500" y1="500" x2="726.3" y2="726.3" stroke="#e5e7eb" stroke-width="1"/>
<text x="765.2" y="765.2" font-size="14" text-anchor="start">成像质量</text>
<line x1="500" y1="500" x2="622.5" y2="795.6" stroke="#e5e7eb" stroke-width="1"/>
<text x="643.5" y="846.5" font-size="14" text-anchor="start">物体类别一致性</text>
<line x1="500" y1="500" x2="500.0" y2="820.0" stroke="#e5e7eb" stroke-width="1"/>
<text x="500.0" y="875.0" font-size="14" text-anchor="middle">多物体一致性</text>
<line x1="500" y1="500" x2="377.5" y2="795.6" stroke="#e5e7eb" stroke-width="1"/>
<text x="356.5" y="846.5" font-size="14" text-anchor="end">人物动作一致性</text>
<line x1="500" y1="500" x2="273.7" y2="726.3" stroke="#e5e7eb" stroke-width="1"/>
<text x="234.8" y="765.2" font-size="14" text-anchor="end">颜色一致性</text>
<line x1="500" y1="500" x2="204.4" y2="622.5" stroke="#e5e7eb" stroke-width="1"/>
<text x="153.5" y="643.5" font-size="14" text-anchor="end">空间关系一致性</text>
<line x1="500" y1="500" x2="180.0" y2="500.0" stroke="#e5e7eb" stroke-width="1"/>
<text x="125.0" y="500.0" font-size="14" text-anchor="end">场景一致性</text>
<line x1="500" y1="500" x2="204.4" y2="377.5" stroke="#e5e7eb" stroke-width="1"/>
<text x="153.5" y="356.5" font-size="14" text-anchor="end">时序风格一致性</text>
<line x1="500" y1="500" x2="273.7" y2="273.7" stroke="#e5e7eb" stroke-width="1"/>
<text x="234.8" y="234.8" font-size="14" text-anchor="end">外观风格一致性</text>
<line x1="500" y1="500" x2="377.5" y2="204.4" stroke="#e5e7eb" stroke-width="1"/>
<text x="356.5" y="153.5" font-size="14" text-anchor="end">整体文本一致性</text>
<polygon points="500.0,500.0 500.0,500.0 719.5,280.5 500.0,500.0 500.0,500.0 500.0,500.0 500.0,500.0 500.0,500.0 500.0,500.0 500.0,500.0 500.0,500.0 500.0,500.0 500.0,500.0 500.0,500.0 500.0,500.0 500.0,500.0" fill="#2563eb" fill-opacity="0.25" stroke="#2563eb" stroke-width="3"/>
</svg>